<?xml version="1.0" encoding="UTF-8" standalone="no"?>
<svg
   xmlns:dc="http://purl.org/dc/elements/1.1/"
   xmlns:cc="http://creativecommons.org/ns#"
   xmlns:rdf="http://www.w3.org/1999/02/22-rdf-syntax-ns#"
   xmlns:svg="http://www.w3.org/2000/svg"
   xmlns="http://www.w3.org/2000/svg"
   xmlns:sodipodi="http://sodipodi.sourceforge.net/DTD/sodipodi-0.dtd"
   xmlns:inkscape="http://www.inkscape.org/namespaces/inkscape"
   width="523.16595"
   height="150.01768"
   viewBox="0 0 523.16595 150.01768"
   version="1.1"
   xml:space="preserve"
   style="clip-rule:evenodd;fill-rule:evenodd;stroke-linecap:round;stroke-linejoin:round;stroke-miterlimit:1.5"
   id="svg204"
   sodipodi:docname="logo.svg"
   inkscape:version="0.92.4 (5da689c313, 2019-01-14)"><metadata
   id="metadata210"><rdf:RDF><cc:Work
       rdf:about=""><dc:format>image/svg+xml</dc:format><dc:type
         rdf:resource="http://purl.org/dc/dcmitype/StillImage" /><dc:title></dc:title></cc:Work></rdf:RDF></metadata><defs
   id="defs208" /><sodipodi:namedview
   pagecolor="#ffffff"
   bordercolor="#666666"
   borderopacity="1"
   objecttolerance="10"
   gridtolerance="10"
   guidetolerance="10"
   inkscape:pageopacity="0"
   inkscape:pageshadow="2"
   inkscape:window-width="640"
   inkscape:window-height="480"
   id="namedview206"
   showgrid="false"
   fit-margin-top="0"
   fit-margin-left="0"
   fit-margin-right="0"
   fit-margin-bottom="0"
   inkscape:zoom="0.55625733"
   inkscape:cx="126.45215"
   inkscape:cy="93.110468"
   inkscape:window-x="0"
   inkscape:window-y="0"
   inkscape:window-maximized="0"
   inkscape:current-layer="svg204" />
    <g
   transform="translate(-343.80503,-170.1706)"
   id="g4">
        <path
   d="m 525.829,237.086 c 0,34.723 -28.191,62.914 -62.915,62.914"
   style="fill:none;stroke:#e11515;stroke-width:8px"
   id="path2"
   inkscape:connector-curvature="0" />
    </g>
    <g
   transform="translate(-343.80503,-170.1706)"
   id="g8">
        <path
   d="m 400,237.086 c 0,-34.724 28.191,-62.915 62.914,-62.915"
   style="fill:none;stroke:#e11515;stroke-width:8px"
   id="path6"
   inkscape:connector-curvature="0" />
    </g>
    <g
   transform="translate(-280.89103,-233.085)"
   id="g12">
        <path
   d="M 400,362.914 H 389.224"
   style="fill:none;stroke:#e11515;stroke-width:8px"
   id="path10"
   inkscape:connector-curvature="0" />
    </g>
    <g
   transform="translate(-333.02903,-233.085)"
   id="g16">
        <path
   d="M 389.224,362.914 H 337.086"
   style="fill:none;stroke:#e11515;stroke-width:8px"
   id="path14"
   inkscape:connector-curvature="0" />
    </g>
    <g
   transform="translate(-280.89103,-233.085)"
   id="g20">
        <path
   d="m 400,237.086 h 10.776"
   style="fill:none;stroke:#e11515;stroke-width:8px"
   id="path18"
   inkscape:connector-curvature="0" />
    </g>
    <g
   transform="translate(-228.75263,-233.085)"
   id="g24">
        <path
   d="m 410.776,237.086 h 52.138"
   style="fill:none;stroke:#e11515;stroke-width:8px"
   id="path22"
   inkscape:connector-curvature="0" />
    </g>
    <g
   transform="matrix(0.782949,0,0,0.782949,-243.32903,-118.7114)"
   id="g28">
        <path
   d="m 525.829,237.086 c 0,34.723 -28.191,62.914 -62.915,62.914"
   style="fill:none;stroke:#e11515;stroke-width:10.22000027px"
   id="path26"
   inkscape:connector-curvature="0" />
    </g>
    <g
   transform="matrix(0.782949,0,0,0.782949,-243.32903,-118.7114)"
   id="g32">
        <path
   d="m 400,237.086 c 0,-34.724 28.191,-62.915 62.914,-62.915"
   style="fill:none;stroke:#e11515;stroke-width:10.22000027px"
   id="path30"
   inkscape:connector-curvature="0" />
    </g>
    <g
   transform="matrix(0.782949,0,0,0.782949,-194.07043,-167.9697)"
   id="g36">
        <path
   d="M 400,362.914 H 386.236"
   style="fill:none;stroke:#e11515;stroke-width:10.22000027px"
   id="path34"
   inkscape:connector-curvature="0" />
    </g>
    <g
   transform="matrix(0.782949,0,0,0.782949,-246.20803,-167.9697)"
   id="g40">
        <path
   d="m 386.236,362.914 h -49.15"
   style="fill:none;stroke:#e11515;stroke-width:10.22000027px"
   id="path38"
   inkscape:connector-curvature="0" />
    </g>
    <g
   transform="matrix(0.782949,0,0,0.782949,-194.07043,-167.9697)"
   id="g44">
        <path
   d="m 400,237.086 h 13.764"
   style="fill:none;stroke:#e11515;stroke-width:10.22000027px"
   id="path42"
   inkscape:connector-curvature="0" />
    </g>
    <g
   transform="matrix(0.782949,0,0,0.782949,-141.93226,-167.9697)"
   id="g48">
        <path
   d="m 413.764,237.086 h 49.15"
   style="fill:none;stroke:#e11515;stroke-width:10.22000027px"
   id="path46"
   inkscape:connector-curvature="0" />
    </g>
    <g
   transform="matrix(0.593155,0,0,0.593155,-155.47073,-73.7134)"
   id="g52">
        <path
   d="m 525.829,237.086 c 0,34.723 -28.191,62.914 -62.915,62.914"
   style="fill:none;stroke:#e11515;stroke-width:13.48999977px"
   id="path50"
   inkscape:connector-curvature="0" />
    </g>
    <g
   transform="matrix(0.593155,0,0,0.593155,-155.47073,-73.7134)"
   id="g56">
        <path
   d="m 400,237.086 c 0,-34.724 28.191,-62.915 62.914,-62.915"
   style="fill:none;stroke:#e11515;stroke-width:13.48999977px"
   id="path54"
   inkscape:connector-curvature="0" />
    </g>
    <g
   transform="matrix(0.593155,0,0,0.593155,-118.15273,-111.0314)"
   id="g60">
        <path
   d="M 400,362.914 H 381.832"
   style="fill:none;stroke:#e11515;stroke-width:13.48999977px"
   id="path58"
   inkscape:connector-curvature="0" />
    </g>
    <g
   transform="matrix(0.593155,0,0,0.593155,-170.29083,-111.0314)"
   id="g64">
        <path
   d="M 381.832,362.914 H 337.086"
   style="fill:none;stroke:#e11515;stroke-width:13.48999977px"
   id="path62"
   inkscape:connector-curvature="0" />
    </g>
    <g
   transform="matrix(0.593155,0,0,0.593155,-118.15273,-111.0314)"
   id="g68">
        <path
   d="m 400,237.086 h 18.168"
   style="fill:none;stroke:#e11515;stroke-width:13.48999977px"
   id="path66"
   inkscape:connector-curvature="0" />
    </g>
    <g
   transform="matrix(0.593155,0,0,0.593155,-66.01453,-111.0314)"
   id="g72">
        <path
   d="m 418.168,237.086 h 44.746"
   style="fill:none;stroke:#e11515;stroke-width:13.48999977px"
   id="path70"
   inkscape:connector-curvature="0" />
    </g>
    <g
   transform="matrix(0.387095,0,0,0.387095,-60.08283,-24.8594)"
   id="g76">
        <path
   d="m 525.829,237.086 c 0,34.723 -28.191,62.914 -62.915,62.914"
   style="fill:none;stroke:#e11515;stroke-width:20.67000008px"
   id="path74"
   inkscape:connector-curvature="0" />
    </g>
    <g
   transform="matrix(0.387095,0,0,0.387095,-60.08283,-24.8594)"
   id="g80">
        <path
   d="m 400,237.086 c 0,-34.724 28.191,-62.915 62.914,-62.915"
   style="fill:none;stroke:#e11515;stroke-width:20.67000008px"
   id="path78"
   inkscape:connector-curvature="0" />
    </g>
    <g
   transform="matrix(0.387095,0,0,0.387095,-35.72903,-49.2134)"
   id="g84">
        <path
   d="M 400,362.914 H 372.161"
   style="fill:none;stroke:#e11515;stroke-width:20.67000008px"
   id="path82"
   inkscape:connector-curvature="0" />
    </g>
    <g
   transform="matrix(0.387095,0,0,0.387095,-87.86703,-49.2134)"
   id="g88">
        <path
   d="M 372.161,362.914 H 337.086"
   style="fill:none;stroke:#e11515;stroke-width:20.67000008px"
   id="path86"
   inkscape:connector-curvature="0" />
    </g>
    <g
   transform="matrix(0.387095,0,0,0.387095,-35.72903,-49.2134)"
   id="g92">
        <path
   d="m 400,237.086 h 27.839"
   style="fill:none;stroke:#e11515;stroke-width:20.67000008px"
   id="path90"
   inkscape:connector-curvature="0" />
    </g>
    <g
   transform="matrix(0.387095,0,0,0.387095,16.40897,-49.2134)"
   id="g96">
        <path
   d="m 427.839,237.086 h 35.075"
   style="fill:none;stroke:#e11515;stroke-width:20.67000008px"
   id="path94"
   inkscape:connector-curvature="0" />
    </g>
    <g
   transform="matrix(0.171285,0,0,0.171285,39.81897,26.3056)"
   id="g100">
        <path
   d="m 525.829,237.086 c 0,34.723 -28.191,62.914 -62.915,62.914"
   style="fill:none;stroke:#e11515;stroke-width:46.70999908px"
   id="path98"
   inkscape:connector-curvature="0" />
    </g>
    <g
   transform="matrix(0.171285,0,0,0.171285,39.81897,26.3056)"
   id="g104">
        <path
   d="m 400,237.086 c 0,-34.724 28.191,-62.915 62.914,-62.915"
   style="fill:none;stroke:#e11515;stroke-width:46.70999908px"
   id="path102"
   inkscape:connector-curvature="0" />
    </g>
    <g
   transform="matrix(0.171285,0,0,0.171285,50.59497,15.5296)"
   id="g108">
        <path
   d="M 400,362.914 H 337.086"
   style="fill:none;stroke:#e11515;stroke-width:46.70999908px"
   id="path106"
   inkscape:connector-curvature="0" />
    </g>
    <g
   transform="matrix(0.171285,0,0,0.171285,50.59497,15.5296)"
   id="g112">
        <path
   d="m 400,237.086 h 62.914"
   style="fill:none;stroke:#e11515;stroke-width:46.70999908px"
   id="path110"
   inkscape:connector-curvature="0" />
    </g>
    <g
   transform="translate(-280.89103,-233.085)"
   id="g116">
        <path
   d="m 410.776,289.224 h 52.138"
   style="fill:none;stroke:#e11515;stroke-width:8px"
   id="path114"
   inkscape:connector-curvature="0" />
    </g>
    <g
   transform="translate(-280.89103,-233.085)"
   id="g120">
        <path
   d="m 410.776,275.646 h 52.138"
   style="fill:none;stroke:#e11515;stroke-width:8px"
   id="path118"
   inkscape:connector-curvature="0" />
    </g>
    <g
   transform="translate(-280.89103,-233.085)"
   id="g124">
        <path
   d="m 410.776,262.682 h 52.138"
   style="fill:none;stroke:#e11515;stroke-width:8px"
   id="path122"
   inkscape:connector-curvature="0" />
    </g>
    <g
   transform="translate(-280.89103,-233.085)"
   id="g128">
        <path
   d="m 410.776,250.741 h 52.138"
   style="fill:none;stroke:#e11515;stroke-width:8px"
   id="path126"
   inkscape:connector-curvature="0" />
    </g>
    <g
   transform="translate(-280.89103,-233.085)"
   id="g132">
        <path
   d="m 410.776,237.086 h 52.138"
   style="fill:none;stroke:#e11515;stroke-width:8px"
   id="path130"
   inkscape:connector-curvature="0" />
    </g>
    <g
   transform="translate(-280.89103,-233.085)"
   id="g136">
        <path
   d="M 389.224,310.776 H 337.086"
   style="fill:none;stroke:#e11515;stroke-width:8px"
   id="path134"
   inkscape:connector-curvature="0" />
    </g>
    <g
   transform="translate(-280.89103,-233.085)"
   id="g140">
        <path
   d="M 389.224,324.354 H 337.086"
   style="fill:none;stroke:#e11515;stroke-width:8px"
   id="path138"
   inkscape:connector-curvature="0" />
    </g>
    <g
   transform="translate(-280.89103,-233.085)"
   id="g144">
        <path
   d="M 389.224,337.318 H 337.086"
   style="fill:none;stroke:#e11515;stroke-width:8px"
   id="path142"
   inkscape:connector-curvature="0" />
    </g>
    <g
   transform="translate(-280.89103,-233.085)"
   id="g148">
        <path
   d="M 389.224,349.259 H 337.086"
   style="fill:none;stroke:#e11515;stroke-width:8px"
   id="path146"
   inkscape:connector-curvature="0" />
    </g>
    <g
   transform="translate(-280.89103,-233.085)"
   id="g152">
        <path
   d="M 389.224,362.914 H 337.086"
   style="fill:none;stroke:#e11515;stroke-width:8px"
   id="path150"
   inkscape:connector-curvature="0" />
    </g>
    <g
   transform="translate(-352.96403,-232.74621)"
   id="g182">
        <g
   transform="matrix(87.8314,0,0,87.8314,545.922,362.914)"
   id="g156">
            <path
   d="m 0.216,-0.667 v 0.187 h 0.082 v 0.193 H 0.216 c 0,0.039 0.006,0.065 0.018,0.08 0.012,0.015 0.035,0.022 0.067,0.022 v 0.192 c -0.009,0 -0.016,0 -0.021,0 C 0.239,0.007 0.2,-0.002 0.163,-0.021 0.127,-0.041 0.097,-0.067 0.075,-0.1 0.047,-0.142 0.033,-0.197 0.033,-0.267 v -0.4 z"
   style="fill-rule:nonzero"
   id="path154"
   inkscape:connector-curvature="0" />
        </g>
        <g
   transform="matrix(87.8314,0,0,87.8314,575.299,362.914)"
   id="g160">
            <path
   d="M 0.324,-0.183 V 0.006 C 0.309,0.009 0.295,0.01 0.283,0.01 0.209,0.01 0.148,-0.014 0.1,-0.062 0.051,-0.11 0.026,-0.171 0.026,-0.243 c 0,-0.071 0.025,-0.131 0.074,-0.18 0.05,-0.049 0.11,-0.074 0.18,-0.074 0.079,0 0.141,0.023 0.187,0.07 0.045,0.046 0.068,0.108 0.068,0.188 V 0 H 0.352 v -0.226 c 0,-0.025 -0.006,-0.046 -0.019,-0.061 -0.012,-0.015 -0.029,-0.023 -0.05,-0.023 -0.019,0 -0.036,0.007 -0.05,0.021 -0.014,0.014 -0.021,0.031 -0.021,0.05 0,0.02 0.006,0.037 0.019,0.05 0.013,0.013 0.029,0.019 0.048,0.019 0.016,0 0.031,-0.004 0.045,-0.013 z"
   style="fill-rule:nonzero"
   id="path158"
   inkscape:connector-curvature="0" />
        </g>
        <g
   transform="matrix(87.8314,0,0,87.8314,626.934,362.914)"
   id="g164">
            <path
   d="m 0.313,-0.201 v 0.168 c -0.026,0.01 -0.052,0.014 -0.076,0.014 -0.059,0 -0.109,-0.022 -0.149,-0.066 -0.041,-0.045 -0.062,-0.1 -0.062,-0.164 0,-0.07 0.025,-0.128 0.074,-0.176 0.049,-0.048 0.11,-0.072 0.181,-0.072 0.038,0 0.075,0.008 0.11,0.023 0.034,0.015 0.062,0.036 0.082,0.061 0.033,0.043 0.049,0.105 0.049,0.186 v 0.16 C 0.522,0.02 0.498,0.091 0.448,0.145 0.399,0.199 0.335,0.226 0.256,0.226 0.232,0.226 0.201,0.22 0.165,0.208 V 0.042 c 0.023,0.013 0.047,0.02 0.072,0.02 0.033,0 0.058,-0.011 0.076,-0.033 C 0.331,0.007 0.34,-0.024 0.34,-0.064 v -0.183 c 0,-0.051 -0.021,-0.077 -0.062,-0.077 -0.018,0 -0.033,0.007 -0.046,0.021 -0.013,0.013 -0.02,0.029 -0.02,0.046 0,0.019 0.006,0.034 0.019,0.047 0.012,0.012 0.028,0.018 0.046,0.018 0.013,0 0.025,-0.003 0.036,-0.009 z"
   style="fill-rule:nonzero"
   id="path162"
   inkscape:connector-curvature="0" />
        </g>
        <g
   transform="matrix(87.8314,0,0,87.8314,677.583,362.914)"
   id="g168">
            <path
   d="M 0.532,-0.214 H 0.255 C 0.251,-0.228 0.249,-0.241 0.249,-0.252 0.249,-0.269 0.251,-0.285 0.257,-0.3 H 0.35 C 0.344,-0.336 0.323,-0.354 0.289,-0.354 c -0.023,0 -0.041,0.009 -0.056,0.029 -0.014,0.019 -0.021,0.044 -0.021,0.074 0,0.032 0.007,0.057 0.021,0.077 0.014,0.019 0.032,0.029 0.054,0.029 0.018,0 0.036,-0.009 0.053,-0.027 l 0.104,0.125 C 0.395,-0.009 0.341,0.01 0.282,0.01 0.21,0.01 0.149,-0.014 0.1,-0.063 0.051,-0.111 0.026,-0.172 0.026,-0.243 c 0,-0.071 0.025,-0.132 0.075,-0.181 0.049,-0.049 0.11,-0.074 0.183,-0.074 0.07,0 0.13,0.024 0.178,0.072 0.048,0.048 0.072,0.108 0.072,0.178 0,0.007 -0.001,0.019 -0.002,0.034 z"
   style="fill-rule:nonzero"
   id="path166"
   inkscape:connector-curvature="0" />
        </g>
        <g
   transform="matrix(87.8314,0,0,87.8314,726.259,362.914)"
   id="g172">
            <path
   d="M 0.518,-0.326 0.725,-0.32 C 0.711,-0.213 0.674,-0.13 0.614,-0.071 0.553,-0.013 0.474,0.017 0.376,0.017 0.277,0.017 0.194,-0.017 0.127,-0.083 0.06,-0.15 0.026,-0.232 0.026,-0.331 c 0,-0.099 0.034,-0.183 0.103,-0.251 0.068,-0.067 0.152,-0.101 0.252,-0.101 0.098,0 0.18,0.033 0.246,0.1 0.046,0.045 0.078,0.109 0.097,0.191 l -0.213,0.015 c -0.024,-0.073 -0.069,-0.11 -0.135,-0.11 -0.042,0 -0.077,0.015 -0.105,0.044 -0.027,0.029 -0.041,0.067 -0.041,0.112 0,0.044 0.013,0.08 0.041,0.108 0.027,0.029 0.061,0.043 0.102,0.043 0.042,0 0.075,-0.013 0.1,-0.038 0.025,-0.025 0.04,-0.061 0.045,-0.108 z"
   style="fill-rule:nonzero"
   id="path170"
   inkscape:connector-curvature="0" />
        </g>
        <g
   transform="matrix(87.8314,0,0,87.8314,792.304,362.914)"
   id="g176">
            <path
   d="M 0.324,-0.183 V 0.006 C 0.309,0.009 0.295,0.01 0.283,0.01 0.209,0.01 0.148,-0.014 0.1,-0.062 0.051,-0.11 0.026,-0.171 0.026,-0.243 c 0,-0.071 0.025,-0.131 0.074,-0.18 0.05,-0.049 0.11,-0.074 0.18,-0.074 0.079,0 0.141,0.023 0.187,0.07 0.045,0.046 0.068,0.108 0.068,0.188 V 0 H 0.352 v -0.226 c 0,-0.025 -0.006,-0.046 -0.019,-0.061 -0.012,-0.015 -0.029,-0.023 -0.05,-0.023 -0.019,0 -0.036,0.007 -0.05,0.021 -0.014,0.014 -0.021,0.031 -0.021,0.05 0,0.02 0.006,0.037 0.019,0.05 0.013,0.013 0.029,0.019 0.048,0.019 0.016,0 0.031,-0.004 0.045,-0.013 z"
   style="fill-rule:nonzero"
   id="path174"
   inkscape:connector-curvature="0" />
        </g>
        <g
   transform="matrix(87.8314,0,0,87.8314,843.94,362.914)"
   id="g180">
            <path
   d="m 0.32,-0.492 v 0.196 C 0.308,-0.304 0.296,-0.307 0.286,-0.307 c -0.034,0 -0.05,0.025 -0.05,0.076 V 0 H 0.053 v -0.266 c 0,-0.07 0.019,-0.126 0.058,-0.168 0.038,-0.042 0.09,-0.063 0.154,-0.063 0.014,0 0.033,0.002 0.055,0.005 z"
   style="fill-rule:nonzero"
   id="path178"
   inkscape:connector-curvature="0" />
        </g>
    </g>
    <g
   transform="translate(-138.41703,-229.82993)"
   id="g186">
        <path
   d="M 372.579,233.831 H 657.526"
   style="fill:none;stroke:#e11515;stroke-width:8px"
   id="path184"
   inkscape:connector-curvature="0" />
    </g>
    <g
   transform="translate(-152.07263,-216.1743)"
   id="g190">
        <path
   d="M 372.579,233.831 H 657.526"
   style="fill:none;stroke:#e11515;stroke-width:8px"
   id="path188"
   inkscape:connector-curvature="0" />
    </g>
    <g
   transform="translate(-164.01343,-204.2335)"
   id="g194">
        <path
   d="M 372.579,233.831 H 657.526"
   style="fill:none;stroke:#e11515;stroke-width:8px"
   id="path192"
   inkscape:connector-curvature="0" />
    </g>
    <g
   transform="translate(-177.55923,-191.2694)"
   id="g198">
        <path
   d="M 372.579,233.831 H 657.526"
   style="fill:none;stroke:#e11515;stroke-width:8px"
   id="path196"
   inkscape:connector-curvature="0" />
    </g>
    <g
   transform="translate(-190.55513,-177.6918)"
   id="g202">
        <path
   d="M 372.579,233.831 H 657.526"
   style="fill:none;stroke:#e11515;stroke-width:8px"
   id="path200"
   inkscape:connector-curvature="0" />
    </g>
</svg>