<?xml version="1.0" encoding="UTF-8" standalone="no"?>
<svg
   xmlns:dc="http://purl.org/dc/elements/1.1/"
   xmlns:cc="http://creativecommons.org/ns#"
   xmlns:rdf="http://www.w3.org/1999/02/22-rdf-syntax-ns#"
   xmlns:svg="http://www.w3.org/2000/svg"
   xmlns="http://www.w3.org/2000/svg"
   xmlns:sodipodi="http://sodipodi.sourceforge.net/DTD/sodipodi-0.dtd"
   xmlns:inkscape="http://www.inkscape.org/namespaces/inkscape"
   width="88"
   height="17"
   viewBox="44 8 88 17"
   version="1.1"
   id="svg6"
   sodipodi:docname="auto_ru.svg"
   inkscape:version="0.92.4 (5da689c313, 2019-01-14)">
  <metadata
     id="metadata12">
    <rdf:RDF>
      <cc:Work
         rdf:about="">
        <dc:format>image/svg+xml</dc:format>
        <dc:type
           rdf:resource="http://purl.org/dc/dcmitype/StillImage" />
      </cc:Work>
    </rdf:RDF>
  </metadata>
  <defs
     id="defs10" />
  <sodipodi:namedview
     pagecolor="#ffffff"
     bordercolor="#666666"
     borderopacity="1"
     objecttolerance="10"
     gridtolerance="10"
     guidetolerance="10"
     inkscape:pageopacity="0"
     inkscape:pageshadow="2"
     inkscape:window-width="1920"
     inkscape:window-height="1001"
     id="namedview8"
     showgrid="false"
     inkscape:zoom="3.8522727"
     inkscape:cx="1.2352941"
     inkscape:cy="8.4658847"
     inkscape:window-x="-9"
     inkscape:window-y="-9"
     inkscape:window-maximized="1"
     inkscape:current-layer="svg6" />
  <g
     fill="#FFF"
     id="g4"
     style="fill:#434343;fill-opacity:1">
    <path
       d="M50.5 11.5c1.9 0 3.4.7 3.8 1.7v-1.3h3v12.8h-3v-1.3c-.4.9-1.9 1.7-3.8 1.7-3.4 0-6.5-2.7-6.5-6.7s3.1-6.9 6.5-6.9m.4 10.1c1.6 0 2.9-.7 3.3-1.7v-3.4c-.4-1-1.8-1.7-3.3-1.7-2.2 0-3.7 1.4-3.7 3.4 0 2.1 1.5 3.4 3.7 3.4M60.9 11.9H64v6.9c0 1.8 1.2 2.9 2.7 2.9 1.3 0 2.6-.8 2.8-1.9V12h3.1v12.8h-3v-1.3c-.3.9-1.6 1.6-3.4 1.6-2.6 0-5.4-1.7-5.4-5.7v-7.5M84.8 23.5c-.6.8-1.8 1.5-3.2 1.5-2.8 0-4.2-1.6-4.2-4.4v-5.4h-2.2v-1l4.4-5.5h1v3.2h4v3.3h-4.1v4.7c0 1.3.7 1.7 1.6 1.7.9 0 1.4-.3 2-1l.7 2.9M93.6 25c-3.6 0-6.7-2.8-6.7-6.7s3.1-6.7 6.7-6.7 6.7 2.9 6.7 6.7-3.1 6.7-6.7 6.7m0-3.4c2 0 3.6-1.4 3.6-3.4s-1.6-3.4-3.6-3.4-3.6 1.4-3.6 3.4c0 2.1 1.6 3.4 3.6 3.4M104.5 20.7c1.2 0 2.2.9 2.2 2.2 0 1.2-.9 2.2-2.2 2.2-1.2 0-2.2-.9-2.2-2.2.1-1.3 1-2.2 2.2-2.2M117.6 15.4c-.4-.2-1-.5-1.7-.5-1.5 0-2.4.9-2.7 2.1v7.7h-3.1V11.9h3v1.7c.4-1.2 1.4-2 2.8-2 .9 0 1.7.4 2.1 1l-.4 2.8M120.2 11.9h3.1v6.9c0 1.8 1.2 2.9 2.7 2.9 1.3 0 2.6-.8 2.8-1.9V12h3.1v12.8h-3v-1.3c-.3.9-1.6 1.6-3.4 1.6-2.6 0-5.4-1.7-5.4-5.7v-7.5"
       id="path2"
       style="fill:#434343;fill-opacity:1" />
  </g>
</svg>
