<?xml version="1.0" encoding="UTF-8" standalone="no"?>
<!DOCTYPE svg PUBLIC "-//W3C//DTD SVG 1.1//EN" "http://www.w3.org/Graphics/SVG/1.1/DTD/svg11.dtd">
<svg width="100%" height="100%" viewBox="0 0 239 134" version="1.1" xmlns="http://www.w3.org/2000/svg" xmlns:xlink="http://www.w3.org/1999/xlink" xml:space="preserve" xmlns:serif="http://www.serif.com/" style="fill-rule:evenodd;clip-rule:evenodd;stroke-linecap:round;stroke-linejoin:round;stroke-miterlimit:1.5;">
    <g transform="matrix(1,0,0,1,-343.862,-170.171)">
        <path d="M525.829,237.086C525.829,271.809 497.638,300 462.914,300" style="fill:none;stroke:rgb(225,21,21);stroke-width:8px;"/>
    </g>
    <g transform="matrix(1,0,0,1,-343.862,-170.171)">
        <path d="M400,237.086C400,202.362 428.191,174.171 462.914,174.171" style="fill:none;stroke:rgb(225,21,21);stroke-width:8px;"/>
    </g>
    <g transform="matrix(1,0,0,1,-280.947,-233.086)">
        <path d="M400,362.914L389.224,362.914" style="fill:none;stroke:rgb(225,21,21);stroke-width:8px;"/>
    </g>
    <g transform="matrix(1,0,0,1,-333.086,-233.086)">
        <path d="M389.224,362.914L337.086,362.914" style="fill:none;stroke:rgb(225,21,21);stroke-width:8px;"/>
    </g>
    <g transform="matrix(1,0,0,1,-280.947,-233.086)">
        <path d="M400,237.086L410.776,237.086" style="fill:none;stroke:rgb(225,21,21);stroke-width:8px;"/>
    </g>
    <g transform="matrix(1,0,0,1,-228.809,-233.086)">
        <path d="M410.776,237.086L462.914,237.086" style="fill:none;stroke:rgb(225,21,21);stroke-width:8px;"/>
    </g>
    <g transform="matrix(0.782949,0,0,0.782949,-243.386,-118.712)">
        <path d="M525.829,237.086C525.829,271.809 497.638,300 462.914,300" style="fill:none;stroke:rgb(225,21,21);stroke-width:10.22px;"/>
    </g>
    <g transform="matrix(0.782949,0,0,0.782949,-243.386,-118.712)">
        <path d="M400,237.086C400,202.362 428.191,174.171 462.914,174.171" style="fill:none;stroke:rgb(225,21,21);stroke-width:10.22px;"/>
    </g>
    <g transform="matrix(0.782949,0,0,0.782949,-194.127,-167.97)">
        <path d="M400,362.914L386.236,362.914" style="fill:none;stroke:rgb(225,21,21);stroke-width:10.22px;"/>
    </g>
    <g transform="matrix(0.782949,0,0,0.782949,-246.265,-167.97)">
        <path d="M386.236,362.914L337.086,362.914" style="fill:none;stroke:rgb(225,21,21);stroke-width:10.22px;"/>
    </g>
    <g transform="matrix(0.782949,0,0,0.782949,-194.127,-167.97)">
        <path d="M400,237.086L413.764,237.086" style="fill:none;stroke:rgb(225,21,21);stroke-width:10.22px;"/>
    </g>
    <g transform="matrix(0.782949,0,0,0.782949,-141.989,-167.97)">
        <path d="M413.764,237.086L462.914,237.086" style="fill:none;stroke:rgb(225,21,21);stroke-width:10.22px;"/>
    </g>
    <g transform="matrix(0.593155,0,0,0.593155,-155.527,-73.7141)">
        <path d="M525.829,237.086C525.829,271.809 497.638,300 462.914,300" style="fill:none;stroke:rgb(225,21,21);stroke-width:13.49px;"/>
    </g>
    <g transform="matrix(0.593155,0,0,0.593155,-155.527,-73.7141)">
        <path d="M400,237.086C400,202.362 428.191,174.171 462.914,174.171" style="fill:none;stroke:rgb(225,21,21);stroke-width:13.49px;"/>
    </g>
    <g transform="matrix(0.593155,0,0,0.593155,-118.209,-111.032)">
        <path d="M400,362.914L381.832,362.914" style="fill:none;stroke:rgb(225,21,21);stroke-width:13.49px;"/>
    </g>
    <g transform="matrix(0.593155,0,0,0.593155,-170.348,-111.032)">
        <path d="M381.832,362.914L337.086,362.914" style="fill:none;stroke:rgb(225,21,21);stroke-width:13.49px;"/>
    </g>
    <g transform="matrix(0.593155,0,0,0.593155,-118.209,-111.032)">
        <path d="M400,237.086L418.168,237.086" style="fill:none;stroke:rgb(225,21,21);stroke-width:13.49px;"/>
    </g>
    <g transform="matrix(0.593155,0,0,0.593155,-66.0713,-111.032)">
        <path d="M418.168,237.086L462.914,237.086" style="fill:none;stroke:rgb(225,21,21);stroke-width:13.49px;"/>
    </g>
    <g transform="matrix(0.387095,0,0,0.387095,-60.1395,-24.8603)">
        <path d="M525.829,237.086C525.829,271.809 497.638,300 462.914,300" style="fill:none;stroke:rgb(225,21,21);stroke-width:20.67px;"/>
    </g>
    <g transform="matrix(0.387095,0,0,0.387095,-60.1395,-24.8603)">
        <path d="M400,237.086C400,202.362 428.191,174.171 462.914,174.171" style="fill:none;stroke:rgb(225,21,21);stroke-width:20.67px;"/>
    </g>
    <g transform="matrix(0.387095,0,0,0.387095,-35.7856,-49.2142)">
        <path d="M400,362.914L372.161,362.914" style="fill:none;stroke:rgb(225,21,21);stroke-width:20.67px;"/>
    </g>
    <g transform="matrix(0.387095,0,0,0.387095,-87.9238,-49.2142)">
        <path d="M372.161,362.914L337.086,362.914" style="fill:none;stroke:rgb(225,21,21);stroke-width:20.67px;"/>
    </g>
    <g transform="matrix(0.387095,0,0,0.387095,-35.7856,-49.2142)">
        <path d="M400,237.086L427.839,237.086" style="fill:none;stroke:rgb(225,21,21);stroke-width:20.67px;"/>
    </g>
    <g transform="matrix(0.387095,0,0,0.387095,16.3525,-49.2142)">
        <path d="M427.839,237.086L462.914,237.086" style="fill:none;stroke:rgb(225,21,21);stroke-width:20.67px;"/>
    </g>
    <g transform="matrix(0.171285,0,0,0.171285,39.7623,26.3052)">
        <path d="M525.829,237.086C525.829,271.809 497.638,300 462.914,300" style="fill:none;stroke:rgb(225,21,21);stroke-width:46.71px;"/>
    </g>
    <g transform="matrix(0.171285,0,0,0.171285,39.7623,26.3052)">
        <path d="M400,237.086C400,202.362 428.191,174.171 462.914,174.171" style="fill:none;stroke:rgb(225,21,21);stroke-width:46.71px;"/>
    </g>
    <g transform="matrix(0.171285,0,0,0.171285,50.5386,15.529)">
        <path d="M400,362.914L337.086,362.914" style="fill:none;stroke:rgb(225,21,21);stroke-width:46.71px;"/>
    </g>
    <g transform="matrix(0.171285,0,0,0.171285,50.5386,15.529)">
        <path d="M400,237.086L462.914,237.086" style="fill:none;stroke:rgb(225,21,21);stroke-width:46.71px;"/>
    </g>
    <g transform="matrix(1,0,0,1,-280.947,-233.086)">
        <path d="M410.776,289.224L462.914,289.224" style="fill:none;stroke:rgb(225,21,21);stroke-width:8px;"/>
    </g>
    <g transform="matrix(1,0,0,1,-280.947,-233.086)">
        <path d="M410.776,275.646L462.914,275.646" style="fill:none;stroke:rgb(225,21,21);stroke-width:8px;"/>
    </g>
    <g transform="matrix(1,0,0,1,-280.947,-233.086)">
        <path d="M410.776,262.682L462.914,262.682" style="fill:none;stroke:rgb(225,21,21);stroke-width:8px;"/>
    </g>
    <g transform="matrix(1,0,0,1,-280.947,-233.086)">
        <path d="M410.776,250.741L462.914,250.741" style="fill:none;stroke:rgb(225,21,21);stroke-width:8px;"/>
    </g>
    <g transform="matrix(1,0,0,1,-280.947,-233.086)">
        <path d="M410.776,237.086L462.914,237.086" style="fill:none;stroke:rgb(225,21,21);stroke-width:8px;"/>
    </g>
    <g transform="matrix(1,0,0,1,-280.947,-233.086)">
        <path d="M389.224,310.776L337.086,310.776" style="fill:none;stroke:rgb(225,21,21);stroke-width:8px;"/>
    </g>
    <g transform="matrix(1,0,0,1,-280.947,-233.086)">
        <path d="M389.224,324.354L337.086,324.354" style="fill:none;stroke:rgb(225,21,21);stroke-width:8px;"/>
    </g>
    <g transform="matrix(1,0,0,1,-280.947,-233.086)">
        <path d="M389.224,337.318L337.086,337.318" style="fill:none;stroke:rgb(225,21,21);stroke-width:8px;"/>
    </g>
    <g transform="matrix(1,0,0,1,-280.947,-233.086)">
        <path d="M389.224,349.259L337.086,349.259" style="fill:none;stroke:rgb(225,21,21);stroke-width:8px;"/>
    </g>
    <g transform="matrix(1,0,0,1,-280.947,-233.086)">
        <path d="M389.224,362.914L337.086,362.914" style="fill:none;stroke:rgb(225,21,21);stroke-width:8px;"/>
    </g>
</svg>
